<svg width="250" height="60" viewBox="0 0 250 60" fill="none" xmlns="http://www.w3.org/2000/svg">
<path d="M8.65962 43.082L7.53762 40.354C8.31495 40.09 9.02628 39.782 9.67162 39.43C10.3316 39.078 10.9036 38.6893 11.3876 38.264C11.8716 37.8387 12.2456 37.3767 12.5096 36.878C12.7736 36.3647 12.9056 35.8147 12.9056 35.228C12.9056 34.612 12.7663 33.9373 12.4876 33.204C12.209 32.4707 11.8716 31.7227 11.4756 30.96L14.3576 29.574C14.6216 30.0287 14.849 30.52 15.0396 31.048C15.245 31.5613 15.4136 32.0233 15.5456 32.434C15.6776 32.8447 15.7656 33.1233 15.8096 33.27C16.015 33.974 16.2936 34.4433 16.6456 34.678C17.0123 34.9127 17.599 35.03 18.4056 35.03C18.963 35.03 19.359 35.1767 19.5936 35.47C19.843 35.7487 19.9676 36.1007 19.9676 36.526C19.9676 36.9807 19.8136 37.362 19.5056 37.67C19.1976 37.9633 18.7576 38.11 18.1856 38.11C17.5843 38.11 17.0563 38.022 16.6016 37.846C16.147 37.67 15.7803 37.4133 15.5016 37.076C15.2376 36.7387 15.069 36.3427 14.9956 35.888L15.8096 36.35C15.7216 37.1273 15.465 37.8607 15.0396 38.55C14.629 39.254 14.0936 39.8993 13.4336 40.486C12.7736 41.0727 12.033 41.586 11.2116 42.026C10.3903 42.466 9.53962 42.818 8.65962 43.082ZM18.2119 38.11L18.4319 35.03C18.7986 35.03 19.0772 34.9567 19.2679 34.81C19.4586 34.6633 19.6492 34.4067 19.8399 34.04C20.0306 33.6733 20.2946 33.1747 20.6319 32.544C20.9986 31.84 21.3799 31.2533 21.7759 30.784C22.1719 30.3 22.5679 29.9187 22.9639 29.64C23.3746 29.3467 23.7779 29.1413 24.1739 29.024C24.5846 28.892 24.9879 28.826 25.3839 28.826C25.9266 28.826 26.4326 28.9433 26.9019 29.178C27.3859 29.398 27.8479 29.7867 28.2879 30.344C28.7279 30.8867 29.1459 31.6347 29.5419 32.588C29.8206 33.248 30.0992 33.754 30.3779 34.106C30.6566 34.458 30.9426 34.7 31.2359 34.832C31.5439 34.964 31.8519 35.03 32.1599 35.03C32.7172 35.03 33.1132 35.1767 33.3479 35.47C33.5826 35.7487 33.6999 36.1007 33.6999 36.526C33.6999 36.9807 33.5459 37.362 33.2379 37.67C32.9299 37.9633 32.4972 38.11 31.9399 38.11C31.2212 38.11 30.5686 37.9927 29.9819 37.758C29.3952 37.5233 28.9332 37.1713 28.5959 36.702L29.2339 36.218C29.1019 36.526 28.9039 36.8487 28.6399 37.186C28.3906 37.5233 28.0606 37.8093 27.6499 38.044C27.2539 38.2787 26.7772 38.396 26.2199 38.396C25.8532 38.396 25.4206 38.3227 24.9219 38.176C24.4379 38.044 23.9319 37.8167 23.4039 37.494C22.8906 37.1567 22.4139 36.702 21.9739 36.13C21.6952 36.6433 21.3872 37.0467 21.0499 37.34C20.7126 37.6187 20.3166 37.8167 19.8619 37.934C19.4072 38.0513 18.8572 38.11 18.2119 38.11ZM23.2499 33.534C23.3966 33.754 23.5726 33.974 23.7779 34.194C23.9832 34.414 24.2106 34.612 24.4599 34.788C24.7092 34.9493 24.9732 35.0813 25.2519 35.184C25.5452 35.2867 25.8312 35.338 26.1099 35.338C26.4032 35.338 26.6452 35.228 26.8359 35.008C27.0266 34.7733 27.0339 34.4287 26.8579 33.974C26.7846 33.7833 26.6819 33.5707 26.5499 33.336C26.4326 33.0867 26.2932 32.852 26.1319 32.632C25.9852 32.412 25.8166 32.2287 25.6259 32.082C25.4499 31.9353 25.2666 31.862 25.0759 31.862C24.8852 31.862 24.6872 31.9207 24.4819 32.038C24.2766 32.1553 24.0712 32.3387 23.8659 32.588C23.6606 32.8227 23.4552 33.138 23.2499 33.534ZM31.9404 38.11L32.1604 35.03C32.9524 35.03 33.7371 34.986 34.5144 34.898C35.2918 34.81 36.0471 34.678 36.7804 34.502C37.5138 34.326 38.2104 34.0987 38.8704 33.82C39.5451 33.5413 40.1758 33.204 40.7624 32.808C40.3224 32.544 39.8458 32.3167 39.3324 32.126C38.8191 31.9353 38.2691 31.796 37.6824 31.708C37.1104 31.6053 36.5018 31.554 35.8564 31.554C35.6218 31.554 35.3724 31.5613 35.1084 31.576C34.8591 31.5907 34.6024 31.62 34.3384 31.664C34.0744 31.6933 33.8104 31.7373 33.5464 31.796L33.1064 28.782C33.5318 28.6647 33.9791 28.584 34.4484 28.54C34.9324 28.4813 35.3578 28.452 35.7244 28.452C36.5164 28.452 37.2424 28.54 37.9024 28.716C38.5771 28.892 39.1931 29.112 39.7504 29.376C40.3224 29.64 40.8504 29.904 41.3344 30.168C41.8331 30.432 42.3024 30.652 42.7424 30.828C43.1971 31.004 43.6371 31.092 44.0624 31.092H44.8764L45.2284 34.018C44.5978 34.0473 44.0038 34.172 43.4464 34.392C42.9038 34.5973 42.3611 34.8613 41.8184 35.184C41.2904 35.492 40.7184 35.8147 40.1024 36.152C39.5011 36.4893 38.8191 36.8047 38.0564 37.098C37.2938 37.3913 36.4138 37.6333 35.4164 37.824C34.4191 38.0147 33.2604 38.11 31.9404 38.11ZM54.4444 26.208C54.4444 25.724 54.415 25.24 54.3564 24.756C54.3124 24.272 54.2537 23.8173 54.1804 23.392C54.107 22.952 54.041 22.5707 53.9824 22.248L57.0624 21.808C57.121 22.1013 57.1797 22.49 57.2384 22.974C57.297 23.458 57.3484 23.9713 57.3924 24.514C57.4364 25.042 57.4584 25.548 57.4584 26.032C57.4584 26.7947 57.3924 27.5133 57.2604 28.188C57.1284 28.8627 56.9304 29.5007 56.6664 30.102C56.4024 30.6887 56.0724 31.2533 55.6764 31.796L55.2804 32.324C54.899 32.7933 54.4517 33.2553 53.9384 33.71C53.4397 34.1647 52.8897 34.6047 52.2884 35.03H53.7184C54.217 35.03 54.5984 35.0007 54.8624 34.942C55.1264 34.8833 55.3024 34.8027 55.3904 34.7C55.493 34.5827 55.5444 34.4507 55.5444 34.304C55.5444 34.04 55.317 33.6513 54.8624 33.138C54.4077 32.61 53.777 32.0087 52.9704 31.334C52.1637 30.6447 51.2177 29.9187 50.1324 29.156C49.0617 28.3787 47.903 27.6013 46.6564 26.824L48.2624 24.47C49.993 25.5407 51.4524 26.5233 52.6404 27.418C53.843 28.3127 54.8257 29.1267 55.5884 29.86C56.3657 30.5933 56.967 31.2607 57.3924 31.862C57.8177 32.4633 58.111 33.006 58.2724 33.49C58.4337 33.9593 58.5144 34.3847 58.5144 34.766C58.5144 35.1913 58.4484 35.602 58.3164 35.998C58.1844 36.3793 57.9717 36.724 57.6784 37.032C57.385 37.3253 57.0037 37.56 56.5344 37.736C56.065 37.912 55.4857 38 54.7964 38H48.3284V35.052C49.839 33.9667 51.0344 32.94 51.9144 31.972C52.809 31.004 53.4544 30.0507 53.8504 29.112C54.2464 28.1733 54.4444 27.2053 54.4444 26.208ZM61.4368 38L60.9748 21.896H64.0548L64.5168 38H61.4368Z" fill="#EFECE0"/>
<path d="M120 60L145.981 15H94.0192L120 60Z" fill="#EE3030"/>
<path d="M183.372 38.462L183.944 35.382C185 35.382 186.012 35.3307 186.98 35.228C187.963 35.1253 188.894 34.92 189.774 34.612C190.669 34.304 191.505 33.8493 192.282 33.248C193.06 32.6467 193.764 31.84 194.394 30.828L196.858 31.95C196.77 32.2287 196.697 32.5 196.638 32.764C196.58 33.0133 196.55 33.2187 196.55 33.38C196.55 33.7173 196.631 34.0107 196.792 34.26C196.968 34.5093 197.262 34.7 197.672 34.832C198.083 34.964 198.648 35.03 199.366 35.03C199.924 35.03 200.32 35.1767 200.554 35.47C200.789 35.7487 200.906 36.1007 200.906 36.526C200.906 36.9807 200.752 37.362 200.444 37.67C200.151 37.9633 199.718 38.11 199.146 38.11C198.134 38.11 197.254 37.9707 196.506 37.692C195.773 37.4133 195.194 37.0247 194.768 36.526C194.358 36.0127 194.116 35.426 194.042 34.766L194.922 34.854C194.394 35.4847 193.734 36.0273 192.942 36.482C192.165 36.9367 191.278 37.3107 190.28 37.604C189.298 37.8973 188.22 38.11 187.046 38.242C185.888 38.3887 184.663 38.462 183.372 38.462ZM183.35 38.462C181.766 38.462 180.424 38.3373 179.324 38.088C178.239 37.8533 177.352 37.516 176.662 37.076C175.988 36.6213 175.496 36.0933 175.188 35.492C174.88 34.8907 174.726 34.2307 174.726 33.512C174.726 33.0427 174.763 32.5733 174.836 32.104C174.924 31.62 175.027 31.1507 175.144 30.696C175.276 30.2413 175.394 29.8307 175.496 29.464L178.246 30.102C178.188 30.366 178.122 30.652 178.048 30.96C177.975 31.268 177.916 31.5687 177.872 31.862C177.828 32.1407 177.806 32.3973 177.806 32.632C177.806 33.1747 177.997 33.6587 178.378 34.084C178.774 34.4947 179.42 34.8173 180.314 35.052C181.209 35.272 182.412 35.382 183.922 35.382L184.362 37.758L183.35 38.462ZM185.682 25.46C185.316 25.46 184.993 25.3207 184.714 25.042C184.45 24.7633 184.318 24.4333 184.318 24.052C184.318 23.6707 184.45 23.348 184.714 23.084C184.993 22.82 185.316 22.688 185.682 22.688C186.064 22.688 186.386 22.82 186.65 23.084C186.914 23.348 187.046 23.6707 187.046 24.052C187.046 24.4333 186.914 24.7633 186.65 25.042C186.386 25.3207 186.064 25.46 185.682 25.46ZM183.922 28.364C183.556 28.364 183.233 28.2247 182.954 27.946C182.69 27.6673 182.558 27.3373 182.558 26.956C182.558 26.5747 182.69 26.252 182.954 25.988C183.233 25.724 183.556 25.592 183.922 25.592C184.304 25.592 184.626 25.724 184.89 25.988C185.154 26.252 185.286 26.5747 185.286 26.956C185.286 27.3373 185.154 27.6673 184.89 27.946C184.626 28.2247 184.304 28.364 183.922 28.364ZM187.332 28.364C186.966 28.364 186.643 28.2247 186.364 27.946C186.1 27.6673 185.968 27.3373 185.968 26.956C185.968 26.5747 186.1 26.252 186.364 25.988C186.643 25.724 186.966 25.592 187.332 25.592C187.714 25.592 188.036 25.724 188.3 25.988C188.564 26.252 188.696 26.5747 188.696 26.956C188.696 27.3373 188.564 27.6673 188.3 27.946C188.036 28.2247 187.714 28.364 187.332 28.364ZM199.138 38.11L199.358 35.03C200.047 35.03 200.531 34.964 200.81 34.832C201.103 34.6853 201.279 34.4213 201.338 34.04C201.396 33.644 201.411 33.072 201.382 32.324L201.03 21.896H204.154L204.528 32.302C204.557 33.0353 204.645 33.6 204.792 33.996C204.938 34.392 205.18 34.6633 205.518 34.81C205.87 34.9567 206.339 35.03 206.926 35.03C207.483 35.03 207.879 35.1767 208.114 35.47C208.348 35.7487 208.466 36.1007 208.466 36.526C208.466 36.9807 208.312 37.362 208.004 37.67C207.696 37.9633 207.263 38.11 206.706 38.11C206.06 38.11 205.459 38.0367 204.902 37.89C204.344 37.7433 203.882 37.4647 203.516 37.054C203.149 36.6433 202.907 36.0493 202.79 35.272L203.758 35.294C203.508 36.0567 203.186 36.6433 202.79 37.054C202.394 37.45 201.895 37.7287 201.294 37.89C200.707 38.0367 199.988 38.11 199.138 38.11ZM206.7 38.11L206.92 35.03C207.448 35.03 207.903 34.9787 208.284 34.876C208.666 34.7733 208.988 34.568 209.252 34.26C209.516 33.9373 209.736 33.468 209.912 32.852C210.103 32.236 210.272 31.4147 210.418 30.388L213.3 30.872C213.271 31.092 213.227 31.3487 213.168 31.642C213.124 31.9353 213.08 32.236 213.036 32.544C213.007 32.8373 212.992 33.116 212.992 33.38C212.992 33.644 213.044 33.8787 213.146 34.084C213.249 34.2893 213.41 34.4653 213.63 34.612C213.865 34.744 214.166 34.8467 214.532 34.92C214.914 34.9933 215.376 35.03 215.918 35.03C216.476 35.03 216.872 35.1767 217.106 35.47C217.341 35.7487 217.458 36.1007 217.458 36.526C217.458 36.9807 217.304 37.362 216.996 37.67C216.703 37.9633 216.27 38.11 215.698 38.11C215.038 38.11 214.437 38.0587 213.894 37.956C213.366 37.8533 212.904 37.6847 212.508 37.45C212.127 37.2007 211.812 36.878 211.562 36.482C211.328 36.0713 211.181 35.5727 211.122 34.986H212.178C211.914 35.69 211.577 36.2547 211.166 36.68C210.77 37.0907 210.323 37.3987 209.824 37.604C209.326 37.8093 208.805 37.9413 208.262 38C207.734 38.0733 207.214 38.11 206.7 38.11ZM212.002 25.46C211.636 25.46 211.313 25.3207 211.034 25.042C210.77 24.7633 210.638 24.4333 210.638 24.052C210.638 23.6707 210.77 23.348 211.034 23.084C211.313 22.82 211.636 22.688 212.002 22.688C212.384 22.688 212.706 22.82 212.97 23.084C213.234 23.348 213.366 23.6707 213.366 24.052C213.366 24.4333 213.234 24.7633 212.97 25.042C212.706 25.3207 212.384 25.46 212.002 25.46ZM210.242 28.364C209.876 28.364 209.553 28.2247 209.274 27.946C209.01 27.6673 208.878 27.3373 208.878 26.956C208.878 26.5747 209.01 26.252 209.274 25.988C209.553 25.724 209.876 25.592 210.242 25.592C210.624 25.592 210.946 25.724 211.21 25.988C211.474 26.252 211.606 26.5747 211.606 26.956C211.606 27.3373 211.474 27.6673 211.21 27.946C210.946 28.2247 210.624 28.364 210.242 28.364ZM213.652 28.364C213.286 28.364 212.963 28.2247 212.684 27.946C212.42 27.6673 212.288 27.3373 212.288 26.956C212.288 26.5747 212.42 26.252 212.684 25.988C212.963 25.724 213.286 25.592 213.652 25.592C214.034 25.592 214.356 25.724 214.62 25.988C214.884 26.252 215.016 26.5747 215.016 26.956C215.016 27.3373 214.884 27.6673 214.62 27.946C214.356 28.2247 214.034 28.364 213.652 28.364ZM215.702 38.11L215.922 35.03C216.289 35.03 216.567 34.9567 216.758 34.81C216.949 34.6633 217.139 34.4067 217.33 34.04C217.521 33.6733 217.785 33.1747 218.122 32.544C218.489 31.84 218.87 31.2533 219.266 30.784C219.662 30.3 220.058 29.9187 220.454 29.64C220.865 29.3467 221.268 29.1413 221.664 29.024C222.075 28.892 222.478 28.826 222.874 28.826C223.417 28.826 223.923 28.9433 224.392 29.178C224.876 29.398 225.338 29.7867 225.778 30.344C226.218 30.8867 226.636 31.6347 227.032 32.588C227.311 33.248 227.589 33.754 227.868 34.106C228.147 34.458 228.433 34.7 228.726 34.832C229.034 34.964 229.342 35.03 229.65 35.03C230.207 35.03 230.603 35.1767 230.838 35.47C231.073 35.7487 231.19 36.1007 231.19 36.526C231.19 36.9807 231.036 37.362 230.728 37.67C230.42 37.9633 229.987 38.11 229.43 38.11C228.711 38.11 228.059 37.9927 227.472 37.758C226.885 37.5233 226.423 37.1713 226.086 36.702L226.724 36.218C226.592 36.526 226.394 36.8487 226.13 37.186C225.881 37.5233 225.551 37.8093 225.14 38.044C224.744 38.2787 224.267 38.396 223.71 38.396C223.343 38.396 222.911 38.3227 222.412 38.176C221.928 38.044 221.422 37.8167 220.894 37.494C220.381 37.1567 219.904 36.702 219.464 36.13C219.185 36.6433 218.877 37.0467 218.54 37.34C218.203 37.6187 217.807 37.8167 217.352 37.934C216.897 38.0513 216.347 38.11 215.702 38.11ZM220.74 33.534C220.887 33.754 221.063 33.974 221.268 34.194C221.473 34.414 221.701 34.612 221.95 34.788C222.199 34.9493 222.463 35.0813 222.742 35.184C223.035 35.2867 223.321 35.338 223.6 35.338C223.893 35.338 224.135 35.228 224.326 35.008C224.517 34.7733 224.524 34.4287 224.348 33.974C224.275 33.7833 224.172 33.5707 224.04 33.336C223.923 33.0867 223.783 32.852 223.622 32.632C223.475 32.412 223.307 32.2287 223.116 32.082C222.94 31.9353 222.757 31.862 222.566 31.862C222.375 31.862 222.177 31.9207 221.972 32.038C221.767 32.1553 221.561 32.3387 221.356 32.588C221.151 32.8227 220.945 33.138 220.74 33.534ZM229.431 38.11L229.651 35.03C230.325 35.03 230.809 34.964 231.103 34.832C231.396 34.6853 231.572 34.4213 231.631 34.04C231.689 33.644 231.704 33.072 231.675 32.324L231.279 21.896H234.381L234.821 32.544C234.85 33.3947 234.813 34.1647 234.711 34.854C234.623 35.5287 234.395 36.108 234.029 36.592C233.677 37.076 233.127 37.45 232.379 37.714C231.645 37.978 230.663 38.11 229.431 38.11ZM237.722 38L237.26 21.896H240.34L240.802 38H237.722Z" fill="#EFECE0"/>
</svg>
