<svg width="22" height="28" viewBox="0 0 22 28" fill="none" xmlns="http://www.w3.org/2000/svg">
<path d="M11 11.5C13.7614 11.5 16 9.26142 16 6.5C16 3.73858 13.7614 1.5 11 1.5C8.23858 1.5 6 3.73858 6 6.5C6 9.26142 8.23858 11.5 11 11.5Z" stroke="#888888" stroke-width="1.5"/>
<path d="M20.9975 21.5C21 21.295 21 21.0862 21 20.875C21 17.7688 16.5225 15.25 11 15.25C5.4775 15.25 1 17.7688 1 20.875C1 23.9812 1 26.5 11 26.5C13.7887 26.5 15.8 26.3037 17.25 25.9537" stroke="#888888" stroke-width="1.5" stroke-linecap="round"/>
</svg>
