<svg width="20" height="21" viewBox="0 0 20 21" fill="none" xmlns="http://www.w3.org/2000/svg">
<g clip-path="url(#clip0_20_2472)">
<path d="M10 19.6286C10.938 19.6286 11.8669 19.4438 12.7335 19.0849C13.6001 18.7259 14.3875 18.1998 15.0508 17.5365C15.7141 16.8732 16.2402 16.0858 16.5992 15.2192C16.9581 14.3526 17.1429 13.4237 17.1429 12.4857V8.51429C17.143 6.75955 16.4972 5.06618 15.3286 3.75715M2.85718 10.1V12.4857C2.8567 13.8918 3.27125 15.2668 4.04889 16.4384C4.82652 17.6099 5.93263 18.5259 7.22861 19.0714M13.5715 2.32857C11.9309 1.38141 9.98128 1.12474 8.15147 1.61501C6.32167 2.10528 4.76155 3.30234 3.81432 4.94286C3.42429 5.61647 3.1491 6.35031 3.00004 7.11429" stroke="#888888" stroke-linecap="round" stroke-linejoin="round"/>
<path d="M9.25725 5.51428C9.78267 5.4052 10.3259 5.41544 10.8468 5.54426C11.3678 5.67307 11.8531 5.91716 12.2672 6.25854C12.6812 6.59992 13.0134 7.02988 13.2391 7.51671C13.4649 8.00355 13.5785 8.53484 13.5715 9.07143V11.3714M12.6572 14.3714C12.1712 14.9129 11.5313 15.2929 10.8234 15.4607C10.1154 15.6285 9.37301 15.5761 8.69564 15.3104C8.01827 15.0448 7.4382 14.5785 7.03307 13.9742C6.62793 13.3698 6.41706 12.6561 6.42868 11.9286V9.07143C6.42596 8.58078 6.52317 8.09472 6.71439 7.64285M10.0001 9.22857V11.6143" stroke="#888888" stroke-linecap="round" stroke-linejoin="round"/>
</g>
<defs>
<clipPath id="clip0_20_2472">
<rect width="20" height="20" fill="white" transform="translate(0 0.5)"/>
</clipPath>
</defs>
</svg>
