<svg width="350" height="1080" viewBox="0 0 350 1080" fill="none" xmlns="http://www.w3.org/2000/svg">
<path d="M321.186 53.7523C324.581 49.9252 327.085 42.4674 328.323 31.9122C328.756 28.2191 328.909 26.0349 329.645 22.3592V22.1137C329.645 22.1137 329.292 21.7457 329.083 21.289C328.875 20.8322 328.687 19.1876 328.687 17.6269V14.7897L329.844 13.8659C330.921 13.0073 330.967 12.8398 330.967 10.9957C330.967 9.13848 331.048 8.97389 332.288 7.79558C333.006 7.1132 333.577 6.27999 333.577 5.94807C333.577 5.61611 333.981 4.77063 334.469 4.06757C334.963 3.35649 335.43 2.16628 335.526 1.36229C335.628 0.519674 335.687 0.176792 335.857 0.141619C335.959 0.120496 336.105 0.214516 336.319 0.372557C336.812 0.733525 336.949 1.19205 336.915 2.71493C336.872 4.56332 336.896 4.6612 338.269 5.94807C339.048 6.67782 339.979 7.70198 340.318 8.22446C340.694 8.80321 341.708 9.51914 342.928 10.072C344.031 10.571 345.394 11.371 345.969 11.8535L347.026 12.7442L346.134 13.668C345.398 14.4343 345.26 14.8718 345.307 16.1424L345.109 16.7223V18.4517C345.109 18.4517 345.3 23.5509 345.307 23.7537L345.242 27.4487L345.671 28.2501L348.447 30.8894L348.579 37.0257C348.672 41.6801 348.555 43.8769 348.149 46.2303C347.855 47.934 347.433 51.5995 347.191 54.3791L346.795 58.701L347.059 60.4825L347.852 62.396C348.321 63.5464 348.612 64.9343 348.613 65.9591C348.613 66.8882 348.772 68.1486 348.975 68.7303C349.294 69.6418 349.246 69.9469 348.613 71.0727C347.915 72.3111 347.907 72.5206 348.282 74.8337C348.583 76.7014 348.573 77.4952 348.282 78.1988C347.896 79.1285 348.025 85.7396 348.479 89.0529C348.634 90.171 348.525 90.9013 348.149 91.6922C347.846 92.3307 347.621 93.6327 347.621 94.7934C347.621 96.1515 347.436 97.2252 346.993 98.0925C346.164 99.7162 346.146 100.895 346.993 103.041C348.268 106.27 346.887 108.575 343.061 109.607C340.786 110.219 337.195 111.832 335.924 112.807C335.494 113.135 334.892 113.4 334.602 113.4M321.186 53.7523L321.345 53.5691L322.583 51.8952M321.186 53.7523L320.228 54.7421L317.749 55.9531L315.106 55.8967C313.208 55.637 308.005 55.6396 306.448 55.8967C305.396 56.0707 305.194 56.2986 304.267 58.1732C303.7 59.3201 303.507 60.0519 303.474 60.1518C303.251 60.3682 303.395 60.4134 303.177 60.6474C301.848 62.071 300.185 63.2128 298.427 64.1116C297.888 64.3353 296.491 64.9331 295.345 65.2993C295.345 65.2993 294.903 65.4596 293.538 65.7779C292.135 66.1051 290.672 66.3213 290.029 66.3219C289.187 66.3229 288.809 66.4218 288.175 66.4539H287.812C281.862 66.3313 275.985 64.0572 272.545 59.6907L271.521 56.7875C270.896 55.7773 270.839 55.4135 271.124 54.3462L271.455 53.1254L269.406 53.3234C267.509 53.5003 267.297 53.4289 266.498 52.6306C265.466 51.6005 265.273 51.5969 264.515 52.4327C264.194 52.7878 263.413 53.1607 262.764 53.2574C261.617 53.4285 256.625 54.3958 253.512 55.072C251.647 55.477 251.067 56.6161 249.878 55.6328C249.388 55.2281 248.893 54.9987 248.489 54.8974C247.876 54.7435 247.536 55.6328 247.115 55.6328C246.255 55.6328 245.249 56.8332 245.249 56.8332C238.133 58.1805 237.379 57.5488 232.298 56.9195C232.298 56.9195 229.953 56.5551 230.018 56.4906C228.927 55.9531 229.199 55.7385 225.788 55.5339C221.427 55.2723 221.271 55.3296 221.261 57.1834C221.254 58.6813 218.347 70.9555 215.413 81.9598C213.412 89.4621 212.667 92.9482 212.141 97.0037C211.765 99.9063 211.447 102.497 211.447 102.777C211.447 103.156 211.795 103.305 212.769 103.305L214.124 102.933M334.602 113.4C334.311 113.401 333.214 114.003 332.156 114.72L330.438 115.601C321.034 122.423 315.892 131.722 321.649 135.273L323.4 135.505C324.465 136.072 325.512 136.747 325.712 136.989C326.128 137.488 326.969 142.631 326.969 142.631C326.946 142.653 327.266 143.05 327.266 143.05C328.098 144.667 328.323 145.161 328.323 145.161L328.852 146.277C328.852 146.277 331.169 148.941 332.487 151.604C333.765 154.187 334.029 155.017 334.271 157.575C334.425 159.21 334.622 160.784 334.733 161.073C334.857 161.393 334.486 162.285 333.775 163.316C332.417 165.288 332.417 165.4 333.28 166.813C334.104 168.163 334.097 168.297 333.214 168.067C332.819 167.964 332.024 168.387 332.024 168.387C331.835 170.793 331.324 173.335 331.099 175.754C330.858 178.338 330.828 180.948 330.967 183.276C331.059 184.8 331.224 186.206 331.452 187.39M334.602 113.4C333.794 112.571 333.503 109.802 332.111 108.411C330.603 106.906 328.2 108.754 327.624 109.905C326.357 112.434 325.222 111.556 323.512 113.264C321.876 114.897 323.167 116.249 319.773 116.249C316.718 116.249 315.115 116.451 313.044 114.383C311.355 112.697 310.457 111.397 307.811 111.397C304.994 111.397 303.016 110.98 301.081 109.531C300.26 108.915 300.032 108.643 299.245 108.211M214.124 102.933L214.189 103.338C217.311 106.454 212.942 123.191 207.383 129.434C202.668 134.73 199.729 137.544 195.255 133.097C195.255 133.097 193.965 131.027 192.018 129.27C189.856 127.32 189.042 127.122 188.217 128.279C187.839 128.81 187.509 128.975 186.532 129.104C184.03 129.435 183.199 130.622 183.426 133.492C183.495 134.361 183.275 136.545 182.865 139.364C182.283 143.355 181.236 154.638 181.312 156.025C179.253 179.712 154.71 277.466 154.71 277.466C151.626 289.66 148.111 301.979 146.879 304.848C145.649 307.718 142.643 317.693 140.238 327.018C137.832 336.343 134.349 346.364 132.472 349.255C130.596 352.144 128.172 358.605 127.086 363.605M214.124 102.933L215.47 102.812C217.481 103.816 218.376 105.713 219.582 106.918C221.333 108.666 222.572 109.519 222.572 111.77C222.572 113.977 222.947 116.513 222.947 118.862C222.947 120.999 223.321 122.445 223.321 124.834C223.321 126.725 228.067 127.82 229.676 127.82C232.044 127.82 234.411 127.82 236.779 127.82C238.81 127.82 242.429 128.774 244.257 129.687C246.516 130.814 247.912 130.641 249.116 133.046M127.086 363.605C125.049 372.987 122.924 377.995 102.27 422.33C83.5192 462.581 45.4192 516.367 13.9444 547.036L0.991211 559.64L5.74951 571.813C8.36575 578.498 18.3271 608.023 27.8889 637.432C37.4504 666.842 50.6397 702.661 57.1657 717.007C69.3438 743.778 75.8696 765.539 76.0336 779.921C76.0847 784.408 77.9351 789.589 80.1642 791.435C83.2848 794.021 83.8544 797.851 82.6424 808.063C81.1278 820.827 81.3766 821.527 89.3833 826.604C97.1637 831.537 126.227 916.604 126.227 916.604C126.227 916.604 162.378 1028.05 163.765 1054.01C164.24 1062.91 165.939 1072.62 167.533 1075.59C170.371 1080.89 170.536 1080.83 176.818 1073.38C180.343 1069.2 183.228 1064.66 183.228 1063.29C183.228 1061.9 186.464 1057.38 190.398 1053.22C195.862 1047.45 197.609 1042.89 197.833 1033.92C198.318 1014.57 202.009 991.338 205.797 983.84C207.753 979.965 209.401 970.56 209.465 962.957C209.604 946.047 213.594 934.479 224.797 918.221L233.356 905.783L229.423 888.364C226.927 877.251 226.392 869.343 227.903 866.523C229.205 864.092 230.249 859.473 230.249 856.264C230.249 853.053 232.092 848.391 234.347 845.904C238.086 841.778 237.954 840.435 232.86 830.464C227.725 820.417 227.612 818.862 231.142 811.296C233.252 806.769 236.366 796.182 238.08 787.774C239.794 779.365 245.772 764.134 251.364 753.892C257.053 743.472 261.555 731.602 261.575 726.971C261.597 721.983 264.204 715.619 268.151 710.937C271.751 706.663 274.077 701.532 273.305 699.522C271.091 693.762 279.038 677.654 287.019 671.71C294.045 666.477 299.64 656.779 293.925 656.699C288.456 656.623 292.357 657.391 293.925 647.132C294.856 641.034 302.348 632.998 303.771 631.197C306.891 627.249 289.524 611.493 285.895 609.126C284.48 608.203 282.52 602.456 281.566 596.358C280.171 587.441 280.603 585.273 283.78 585.273C285.952 585.273 287.765 583.199 287.812 580.687M127.086 363.605C129.2 364.133 132.431 367.031 133.971 368.568C135.831 370.425 136.888 373.812 139.952 373.048C141.625 372.63 144.924 369.382 146.682 370.435C149.009 371.828 148.551 373.51 148.551 376.407C148.551 377.88 150.574 381.852 152.663 379.766C154.307 378.125 153.785 375.644 153.785 373.048C153.785 370.868 155.207 368.643 157.897 369.315C161.084 370.111 160.174 369.383 162.757 367.448C165.862 365.124 166.032 367.08 167.991 369.688C168.982 371.008 171.294 374.665 172.851 371.555C174 369.26 173.23 366.693 174.346 364.462C175.167 362.825 177.249 360.335 177.711 358.49C178.105 356.914 178.642 352.145 175.842 352.145C172.081 352.145 171.218 350.142 169.112 348.04C167.104 346.034 167.936 344.88 170.234 344.307C172.149 343.829 172.161 341.607 171.729 339.455C171.418 337.902 171.04 334.603 173.225 334.603C175.415 334.603 179.577 334.973 180.328 335.722M287.812 580.687C287.857 578.177 289.427 574.149 291.281 571.714C295.335 566.387 294.56 552.413 289.563 540.472C287.388 535.276 286.733 529.644 287.943 526.549C289.061 523.691 290.057 515.257 290.157 507.81C290.259 500.363 291.339 493.67 292.536 492.931C293.733 492.192 294.194 488.067 293.561 483.76C292.818 478.705 294.37 472.774 297.923 467.033C300.951 462.141 303.409 455.909 303.409 453.177C303.408 446.065 318.423 428.679 323.036 430.446C326.066 431.606 326.574 429.668 325.614 420.549C324.955 414.309 323.251 405.169 321.814 400.259C320.012 394.106 320.053 390.302 321.979 387.986C323.898 385.677 324.013 378.748 322.342 365.816C320.174 349.037 320.594 345.106 326.01 329.822C331.546 314.199 331.95 309.783 330.57 280.072C329.681 260.931 330.167 242.671 331.76 235.831C333.378 228.878 333.528 223.036 332.123 221.347C329.55 218.252 331.565 207.062 334.7 207.062C337.389 207.062 335.802 194.477 332.618 190.633C332.14 190.055 331.745 188.903 331.452 187.39M287.812 580.687L283.91 580.093C281.617 580.093 274.915 580.764 273.042 579.829C271.08 578.849 268.845 578.336 266.687 578.336C263.141 578.336 258.544 579.102 255.098 578.336C251.822 577.61 248.043 577.217 244.63 577.217C241.888 577.217 239.147 577.217 236.405 577.217C233.29 577.217 230.174 577.217 227.059 577.217C223.752 577.217 222.026 577.18 219.582 575.351C217.101 573.494 214.722 570.897 214.722 567.512C214.722 566.141 215.382 561.568 214.348 560.793C212.33 559.283 211.594 556.824 208.741 559.673C206.851 561.561 204.975 562.944 203.506 564.899C201.413 567.686 200.594 566.393 196.777 566.393C194.021 566.393 191.986 565.197 189.3 564.526C187.332 564.034 184.43 563.768 182.945 562.286C181.77 561.114 175.732 559.081 175.094 557.808C173.796 555.215 172.813 553.924 172.104 551.089C171.551 548.883 169.112 544.824 169.112 542.878C169.112 539.671 168.338 538.667 167.617 535.786C167.04 533.479 165.657 531.634 163.505 530.56C161.354 529.486 159.394 529.067 156.776 529.067C154.239 529.067 154.276 527.289 152.663 526.081C150.998 524.834 148.417 523.308 147.804 520.856C147.395 519.228 146.682 517.39 146.682 514.883C146.682 512.657 146.064 509.609 147.429 507.792C150.115 504.216 146.308 505.898 146.308 503.313C146.308 500.7 145.803 498.013 147.429 495.848C148.85 493.956 150.186 492.722 151.916 490.996C154.329 488.586 151.021 489.291 150.421 486.89C150.281 486.334 150.026 481.094 149.673 480.918C148.72 480.443 145.846 478.765 145.186 479.425M331.452 187.39H330.967C329.909 186.862 329.528 186.455 327.999 184.928C326.055 182.988 323.63 183.867 321.269 182.689C318.874 181.493 316.74 181.195 313.792 181.195C311.058 181.195 309.13 183.062 307.063 183.062C305.804 183.062 298.829 183.044 298.464 182.315C298.225 181.837 298.112 181.466 298.092 181.172M299.245 108.211L298.837 107.292C297.92 105.458 297.717 102.746 297.717 100.2C297.717 97.4072 300.707 97.7928 300.707 94.9739C300.707 93.1368 297.137 91.5188 297.342 90.4949C297.713 88.6407 297.717 86.5852 297.717 84.5228C297.717 82.8748 297.648 80.3828 296.221 79.6705C295.038 79.0803 291.671 78.2253 290.24 79.2973C288.838 80.3469 287.105 82.2833 284.631 82.2833C282.862 82.2833 278.158 82.5381 277.154 81.5368C276.247 80.6305 274.408 79.5725 274.912 77.0578C275.381 74.7126 276.367 72.6192 278.276 70.7126C279.78 69.2116 281.346 66.6118 282.675 65.7971M299.245 108.211C298.088 107.578 296.334 106.918 294.725 106.918C292.184 106.918 290.793 108.605 289.492 109.905C289.051 110.344 288.744 110.899 288.37 111.397C287.106 113.08 286.259 113.898 287.623 116.623C289.115 119.602 288.37 120.379 288.37 123.714C288.37 125.846 290.374 126.867 290.987 129.313C291.456 131.185 293.23 131.229 293.23 134.166M293.23 134.166C293.23 135.987 292.108 137.43 292.108 139.764C292.108 143.266 295.565 143.033 292.108 146.483C290.68 147.909 288.726 150.239 287.623 151.709C286.154 153.663 285.379 152.882 285.379 155.815C285.379 158.824 287.328 159.792 289.492 161.413C291.603 162.994 292.711 164.254 294.352 165.892C296.435 167.971 298.464 168.845 298.464 172.237C298.464 174.395 300.334 175.563 300.334 178.209C300.334 180.129 297.986 179.647 298.092 181.172M293.23 134.166C292.372 135.132 290.227 135.285 287.996 135.285C284.852 135.285 284.028 134.395 281.641 136.778C280.219 138.198 278.628 139.296 277.154 141.257C275.6 143.326 275.089 143.124 272.295 143.124C269.612 143.124 267.06 142.15 267.06 139.018C267.06 138.131 267.62 133.977 267.06 133.419C265.417 131.778 265.243 129.88 263.696 127.82C262.163 125.778 259.962 124.461 257.341 124.461C256.328 124.461 252.481 123.949 252.481 125.207C252.481 126.5 253.012 129.53 252.107 130.433C251.603 130.937 249.168 133.149 249.116 133.046M298.092 181.172L298.09 181.195C296.958 182.702 293.816 179.117 292.483 180.449C291.098 181.831 291.735 184.854 291.735 186.795C291.735 188.749 292.11 191.279 292.483 192.766C293.029 194.95 295.1 195.489 295.1 198.738C295.1 200.26 290.011 199.858 289.118 199.858C286.363 199.858 285.239 199.998 283.51 201.725M249.116 133.046C248.055 133.841 247.621 132.06 247.621 133.792C247.621 137.136 249.192 137.083 249.864 139.764C250.49 142.264 251.205 144.024 249.49 145.737C247.997 147.227 244.63 148.43 244.63 150.589V157.307C244.63 160.207 242.339 162.008 240.143 163.652C238.235 165.082 237.076 167.089 235.283 168.878C233.544 170.615 231.309 172.808 230.798 174.85C230.379 176.52 230.424 178.978 230.424 181.195C230.424 183.374 230.53 185.674 233.415 185.674C235.806 185.674 238.256 185.483 240.518 186.047C242.19 186.465 245.279 188.156 246.499 189.78C247.517 191.134 246.478 193.875 247.994 194.632M247.994 194.632C249.356 195.312 252.089 195.557 253.976 196.499C256.123 197.57 258.578 198.48 260.331 200.232C261.943 201.84 263.529 202.844 265.94 202.844C269.34 202.844 270.542 203.062 272.669 200.232C274.072 198.363 275.62 198.841 277.529 198.365C280.443 197.638 281.843 200.496 283.51 201.725M247.994 194.632C247.994 194.632 244.71 195.379 243.135 195.379C240.886 195.379 239.57 196.524 238.648 198.365C237.507 200.645 237.322 200.944 235.283 202.471C233.286 203.967 230.304 200.858 229.302 199.858C227.572 198.131 226.419 198.151 224.069 198.738C221.628 199.347 222.49 202.305 223.321 203.964C224.491 206.3 226.044 205.657 223.321 207.697C221.644 208.952 220.704 211.301 220.704 213.295C220.704 215.034 216.677 214.012 217.713 218.147C218.363 220.741 221 223.218 222.199 225.612C223.55 228.311 218.385 230.092 216.592 230.092C213.943 230.092 211.29 231.585 208.366 231.585C205.191 231.585 202.886 232.952 200.889 234.944C199.003 236.828 197.532 240.17 194.534 240.17C190.894 240.17 188.648 240.495 185.562 242.036L183.318 243.155C179.981 244.821 181.488 249.038 178.459 250.247C175.543 251.411 171.918 251.32 168.739 252.113C165.759 252.857 163.984 252.672 160.924 252.672M283.51 201.725C281.897 203.335 280.704 204.464 279.398 206.203C278.487 207.417 279.683 211.625 280.146 212.549C281.382 215.017 281.913 214.856 284.631 215.534C286.658 216.04 288.068 218.593 289.118 219.64C291.772 222.29 294.217 221.128 297.342 222.999C299.425 224.247 301.421 225.577 302.95 227.105C304.574 228.727 305.196 230.468 306.689 231.958C308.089 233.355 307.811 237.387 307.811 239.423C307.811 241.138 308.184 243.43 308.184 245.394M308.184 245.394C308.184 246.708 311.716 247.967 312.67 249.874C313.804 252.137 317.465 255.067 319.773 256.22C321.794 257.228 322.764 256.642 322.764 253.979C322.764 251.646 325.077 252.318 327.25 252.86C327.613 252.95 329.536 254.428 329.909 254.428M308.184 245.394C306.799 245.394 304.189 246.514 301.455 246.514C298.669 246.514 299.212 247.291 299.212 249.874C299.212 251.994 303.269 250.357 301.455 253.979C300.59 255.708 297.395 254.314 295.847 255.472C293.63 257.133 290.987 259.182 290.987 261.818C290.987 264.152 285.992 263.311 284.631 263.311C281.365 263.311 279.94 263.212 277.902 265.924C276.257 268.114 274.648 268.51 274.164 271.896C273.876 273.904 274.094 276.47 274.537 278.241C275.321 281.369 269.004 281.974 267.06 281.974C265.162 281.974 262.77 278.881 261.079 277.868C258.648 276.411 255.877 279.913 253.602 280.48C250.276 281.311 248.016 282.748 245.752 279.734C242.962 276.022 238.699 273.959 234.214 273.959M234.214 273.959C233.035 273.959 229.284 268.309 226.686 267.79C225.942 267.642 225.189 267.541 224.442 267.417C221.326 266.898 220.33 263.966 220.33 260.698C220.33 257.873 220.407 255.163 221.077 252.487C221.9 249.202 220.168 248.219 218.087 246.142C215.526 243.584 213.054 241.059 210.983 238.303C209.883 236.837 210.648 233.232 210.236 231.585M234.214 273.959C232.041 274.827 231.547 275.255 227.807 275.255C226.353 275.255 224.885 278.255 224.442 279.361C223.877 280.77 227.241 283.276 228.181 284.213C230.646 286.674 233.041 283.541 233.041 288.319C233.041 290.601 230.836 291.202 228.928 291.678C228.781 291.715 228.284 297.92 227.433 298.77C225.838 300.362 225.383 301.808 224.069 303.995C222.935 305.881 220.441 305.609 218.46 305.115C215.734 304.434 215.096 309.097 215.096 311.088C215.096 312.2 212.418 314.942 211.731 316.313C210.462 318.847 209.847 320.937 207.993 323.405C207.099 324.593 202.984 326.938 201.264 327.51C198.856 328.312 196.184 327.3 193.787 328.257C192.487 328.776 190.795 333.046 190.795 334.603C190.795 336.741 188.044 339.619 187.431 342.068C186.731 344.865 185.23 346.007 185.936 349.533C186.676 353.223 191.487 348.468 191.917 348.04C193.076 346.883 198.108 349.119 199.768 349.533C202.738 350.274 204.109 352.968 207.245 354.012C210.392 355.059 211.894 353.102 213.975 351.025C215.91 349.093 218.907 347.928 221.452 347.293C224.247 346.596 224.708 346.24 227.433 346.92C230.611 347.712 232.168 349.905 235.658 349.905C237.843 349.905 239.121 350.653 241.639 350.653C244.627 350.653 244.557 349.737 246.873 349.159C248.813 348.675 250.534 348.412 252.854 348.412C255.852 348.412 258.307 348.979 261.079 349.533C263.314 349.979 267.42 351.108 269.304 352.518C272.642 355.018 273.042 353.904 273.042 358.49C273.042 361.153 273.452 362.054 275.286 362.97C276.494 363.573 282.098 361.082 283.51 360.729C283.752 360.669 284.008 360.729 284.258 360.729C286.278 360.729 288.499 360.357 290.613 360.357C293.58 360.357 293.871 362.117 291.735 363.716C289.505 365.386 290.12 366.986 291.735 368.196C294.585 370.329 294.811 371.72 298.464 370.807C301.301 370.1 303.328 366.627 306.689 365.955C308.767 365.54 310.571 365.209 313.044 365.209C315.833 365.209 318.578 365.172 320.895 366.329C321.406 366.583 321.676 366.862 322.475 366.862M295.265 370.87C295.265 370.87 292.855 374.92 292.483 376.407C292.025 378.235 289.738 380.086 289.118 381.633C287.729 385.097 287.745 384.71 290.613 386.857C292.505 388.274 292.108 389.174 292.108 391.71C292.108 393.95 292.108 396.189 292.108 398.428C292.108 401.075 293.883 402.154 294.352 404.028C294.6 405.021 292.272 407.432 291.735 408.506C290.592 410.79 288.218 411.119 285.753 411.119C283.011 411.119 280.271 411.119 277.529 411.119C276.384 411.119 276.043 407.202 273.79 406.641C271.049 405.956 270.079 404.428 268.182 402.534C265.964 400.32 264.474 399.533 261.453 401.041C259.438 402.047 257.676 404.185 255.471 402.534C253.324 400.926 251.502 399.755 249.116 398.802C246.515 397.763 243.643 398.055 240.892 398.055C238.424 398.055 234.675 397.751 238.275 399.548C239.434 400.127 238.521 404.538 238.275 405.52C237.961 406.771 232.792 405.247 232.293 405.147C232.049 405.098 231.794 405.147 231.546 405.147C228.922 405.147 226.962 404.352 224.816 403.281C222.856 402.303 222.553 399.922 219.582 399.922C216.889 399.922 215.608 399.784 214.348 401.041C212.237 403.149 212.749 405.998 210.236 408.506C207.855 410.884 208.446 412.744 206.123 408.88C204.612 406.364 202.485 404.5 200.516 402.534C198.689 400.711 199.304 397.16 200.142 395.069C200.862 393.272 205.495 390.844 206.871 389.47C208.102 388.242 211.009 386.832 212.105 385.738C214.047 383.8 213.975 381.643 213.975 379.02C213.975 378.5 209.197 374.042 208.366 373.42C206.563 372.07 205.104 369.575 203.506 367.448C201.679 365.016 200.791 363.738 201.637 360.357C202.103 358.497 201.592 355.326 201.264 354.012C200.719 351.837 198.076 349.709 196.777 348.412M208.366 410.373C206.717 411.609 207.208 414.515 205.75 415.971C204.085 417.634 203.544 418.584 200.516 418.584C198.213 418.584 196.481 416.83 194.534 416.345C191.658 415.627 190.422 416.355 190.422 419.33C190.422 421.197 190.422 423.063 190.422 424.93C190.422 425.172 185.719 423.732 184.815 424.183C182.777 425.2 185.555 427.543 181.45 427.543C179.481 427.543 175.892 423.263 173.599 422.69C171.426 422.148 169.64 422.987 167.991 423.81C165.971 424.819 162.84 427.585 162.383 429.408C161.797 431.751 159.997 433.71 159.393 436.127C158.829 438.379 158.523 439.98 157.15 441.353C155.777 442.723 151.714 441.353 150.046 441.353C147.04 441.353 145.815 439.011 145.186 436.501C144.619 434.234 144.867 431.55 144.439 429.408C143.865 426.544 142.092 424.827 140.327 423.063C137.773 420.514 135.883 420.824 132.475 420.824C129.447 420.824 126.849 420.785 125.373 417.838C124.596 416.287 122.32 412.939 120.886 411.865C118.86 410.349 116.789 406.655 114.905 404.774C113.822 403.693 112.898 402.309 111.987 401.399M147.507 302.463C149.359 302.463 149.871 307.005 150.794 308.848C151.753 310.762 152.899 311.655 153.411 313.7C153.945 315.831 159.233 315.193 160.888 315.193C162.777 315.193 164.646 313.7 167.244 313.7C169.561 313.7 171.92 313.144 173.599 314.819C174.542 315.762 175.094 319.334 175.094 320.792C175.094 322.95 175.236 324.614 174.346 326.391C173.157 328.766 170.62 328.117 169.112 330.123C167.436 332.355 170.476 332.802 172.104 331.99C174.083 331.002 175.966 330.279 178.085 329.75C180.527 329.14 179.954 332.599 179.954 334.229C179.954 337.228 181.358 336.842 184.066 336.842C186.258 336.842 187.544 337.588 189.675 337.588M165.748 426.049C163.525 425.495 169.584 428.856 170.609 430.902C171.747 433.177 173.225 432.89 173.225 435.754C173.225 438.54 173.009 439.088 170.982 440.606C169.233 441.915 172.578 444.55 173.225 444.712C176.259 445.47 177.059 442.473 179.581 442.473C182.432 442.473 183.552 445.281 186.31 445.832C188.321 446.233 190.235 444.152 191.17 443.219C192.465 441.926 195.317 442.473 197.151 442.473C199.319 442.473 200.611 445.991 201.637 447.697C203.522 450.835 202.581 452.883 206.123 455.536C207.872 456.846 211.075 457.029 213.227 457.029C216.47 457.029 218.068 460.743 219.582 462.255C220.367 463.039 225.384 462.352 226.686 463.001C229.179 464.246 228.554 465.696 228.554 468.6C228.554 471.599 227.462 472.333 231.919 472.333C234.503 472.333 239.022 476.946 239.022 473.453C239.022 470.771 240.395 469.563 242.76 468.973C245.281 468.344 245.974 473.523 246.499 474.572C247.587 476.746 247.563 478.851 249.116 480.918C250.52 482.785 255.442 483.126 256.967 484.65C258.144 485.826 263.086 485.592 264.818 486.89C267.701 489.049 270.765 490.418 273.417 491.742C275.216 492.64 274.537 495.852 274.537 497.714C274.537 500.586 272.91 501.205 271.173 502.939C269.007 505.102 269.291 507.097 268.557 510.031C267.84 512.892 272.886 515.124 274.912 515.63C278.598 516.55 279.654 515.916 282.763 518.243C283.459 518.764 285.658 520.979 286.327 521.647L288.671 523.108M144.864 436.54C144.864 436.54 141.074 438.465 141.074 440.606C141.074 442.458 141.679 444.522 142.944 446.205C144.489 448.262 147.159 448.483 147.804 451.057C148.33 453.162 147.721 455.208 148.177 457.029C148.929 460.029 145.131 462.669 143.691 463.748C142.388 464.724 138.122 464.578 136.962 464.868C132.888 465.884 141.709 469.663 141.822 469.72C144.519 471.067 145.56 474.401 145.56 477.185C145.56 479.869 143.885 479.051 141.447 479.051C138.76 479.051 136.981 478.152 134.345 478.678C132.571 479.032 129.512 482.024 127.989 482.784C125.927 483.814 122.372 482.037 120.139 482.037C117.885 482.037 117.702 480.686 115.279 481.29C114.077 481.591 114.419 485.844 114.157 486.89C113.705 488.692 110.249 491.08 108.923 491.742C106.866 492.768 110.728 493.917 111.914 495.101C112.622 495.809 111.914 500.998 111.914 502.193C111.914 504.352 109.975 505.894 108.55 507.792C107.065 509.767 114.157 510.174 114.157 512.644C114.157 516.14 112.056 516.376 109.297 516.376C106.068 516.376 104.648 514.916 102.942 512.644C98.4518 506.667 98.9399 511.962 96.9599 515.257C95.562 517.583 92.6944 520.329 90.6045 518.243C86.9556 514.599 87.9125 517.969 85.7445 520.856C83.6297 523.671 79.8188 525.335 76.3983 525.335C75.7752 525.335 75.1522 525.335 74.5291 525.335C71.5657 525.335 69.6482 522.722 66.3044 522.722C63.3617 522.722 62.1145 519.735 58.8275 519.735C56.0733 519.735 54.5026 522.348 51.7243 522.348C48.6987 522.348 48.6134 519.205 44.9951 520.109C41.0234 521.101 39.5893 524.013 37.1443 526.454C36.5071 527.091 37.1443 531.936 37.1443 533.173C37.1443 535.345 32.3277 533.129 30.7888 534.665C29.6602 535.793 29.6115 539.797 29.2934 541.384C28.7696 544 24.7842 544.215 27.4242 547.73L27.798 548.103C29.1186 549.861 33.016 548.481 34.5273 548.103C36.3787 547.641 38.8683 546.309 40.5089 545.491C43.1247 544.185 42.5791 549.194 42.0042 550.343C40.8026 552.742 36.7832 550.665 36.0227 553.702C34.8235 558.491 41.7133 554.242 39.3874 560.047C37.7427 564.153 34.6781 563.071 31.5366 562.286C28.1415 561.439 25.1855 560.607 21.8165 561.167C19.5089 561.55 18.5761 563.987 17.3303 565.645C15.7485 567.752 14.5786 569.886 12.4703 571.991C10.1329 574.325 9.50189 574.965 7.31497 576.057" stroke="#646464" stroke-width="0.322581"/>
</svg>
